<svg xmlns="http://www.w3.org/2000/svg" viewBox="0 0 169.87 165.63"><g id="Layer_2" data-name="Layer 2"><g id="Layer_1-2" data-name="Layer 1"><path id="Icon_simple-adobeillustrator" data-name="Icon simple-adobeillustrator" d="M0,0V165.63H169.87V0ZM7.08,7.08H162.8V158.55H7.08Zm51.85,86.7L53.32,115c-.12.59-.35.72-1,.72H41.89c-.7,0-.81-.23-.7-1L61.29,44.3A21.68,21.68,0,0,0,62,38.41c0-.48.24-.71.59-.71H77.39c.47,0,.71.13.82.71l22.54,76.4c.12.59,0,.94-.59.94H88.49c-.59,0-.94-.14-1-.61L81.61,93.8H58.9ZM78.66,82.29c-2-7.83-6.65-25-8.41-33.27h-.12C68.62,57.3,64.88,71.31,62,82.29ZM110.51,43A7.24,7.24,0,1,1,125,42.58a2.28,2.28,0,0,1,0,.37,6.78,6.78,0,0,1-6.27,7.25,7.93,7.93,0,0,1-1.09,0,6.65,6.65,0,0,1-7.15-6.11,7.1,7.1,0,0,1,0-1.13Zm.8,16.09c0-.57.23-.78.82-.78h11.11c.62,0,.85.24.85.82V115c0,.59-.11.82-.82.82h-11c-.71,0-1-.35-1-.92V59Z"/></g></g></svg>