<svg xmlns="http://www.w3.org/2000/svg" viewBox="0 0 169.88 165.63"><g id="Layer_2" data-name="Layer 2"><g id="Layer_1-2" data-name="Layer 1"><path id="Icon_simple-adobexd" data-name="Icon simple-adobexd" d="M139.8,0H30.08A30.05,30.05,0,0,0,0,30V135.55a30.07,30.07,0,0,0,30,30.08H139.8a30.07,30.07,0,0,0,30.08-30V30.07A30.05,30.05,0,0,0,139.84,0Zm22.93,132.78a25.66,25.66,0,0,1-25.53,25.77H32.77A25.73,25.73,0,0,1,7.08,132.86V32.77A25.73,25.73,0,0,1,32.77,7.08H137a25.7,25.7,0,0,1,25.7,25.69ZM67.17,77.49,87,115.58c.35.56.14,1.13-.43,1.13H74.25a1.4,1.4,0,0,1-1.49-.92c-4.53-9.34-9.13-18.68-13.87-28.74h-.14c-4.25,9.48-8.92,19.46-13.45,28.81a1.35,1.35,0,0,1-1.28.77H32.35c-.71,0-.78-.56-.43-1l19.4-36.95L32.56,41.34a.58.58,0,0,1,.43-1H45.16a1.13,1.13,0,0,1,1.28.78c4.46,9.35,9,19,13.23,28.39h.15c4.1-9.35,8.63-19,13-28.32.35-.56.57-.92,1.27-.92h11.4c.57,0,.78.43.42,1ZM90.46,89c0-16.49,11-29.37,28.38-29.37a30.11,30.11,0,0,1,3.68.14V41.05a.72.72,0,0,1,.71-.71h11.18c.57,0,.71.21.71.57v65a50.13,50.13,0,0,0,.36,6.93c0,.43-.15.57-.57.78a42.24,42.24,0,0,1-18.12,4.11c-15.36.07-26.33-9.42-26.33-28.67Zm32.06-18.1a10.46,10.46,0,0,0-4.1-.71c-8.92,0-15.15,6.86-15.15,18.27,0,13,6.36,18.27,14.37,18.27a13.29,13.29,0,0,0,4.88-.78Z"/></g></g></svg>