<svg xmlns="http://www.w3.org/2000/svg" viewBox="0 0 171.09 166.81"><g id="Layer_2" data-name="Layer 2"><g id="Layer_1-2" data-name="Layer 1"><path id="Icon_simple-adobephotoshop" data-name="Icon simple-adobephotoshop" d="M0,0V166.81H171.09V0ZM7.13,7.13H164V159.68H7.13ZM41.35,39.07c0-.48,1-.83,1.6-.83,4.59-.24,11.32-.36,18.37-.36,19.77,0,27.45,10.84,27.45,24.71,0,18.11-13.13,25.88-29.24,25.88-2.71,0-3.63-.12-5.52-.12v27.38c0,.59-.24.83-.83.83h-11c-.59,0-.83-.21-.83-.81ZM54,76.93c1.64.12,2.94.12,5.78.12C68.12,77.05,76,74.11,76,62.82c0-9.06-5.6-13.65-15.13-13.65-2.82,0-5.52.12-6.82.24V76.93Zm61.36-8.47c-5.65,0-7.53,2.82-7.53,5.16,0,2.59,1.29,4.35,8.82,8.24,11.18,5.41,14.7,10.58,14.7,18.22,0,11.41-8.7,17.54-20.47,17.54a31.12,31.12,0,0,1-14.61-3.06c-.47-.24-.57-.59-.57-1.18V102.94c0-.72.34-1,.81-.6a26.29,26.29,0,0,0,14.35,4.24c5.64,0,8-2.35,8-5.53,0-2.59-1.64-4.83-8.82-8.59-10.13-4.85-14.36-9.77-14.36-18,0-9.17,7.17-16.82,19.64-16.82a33.33,33.33,0,0,1,12.79,2,1.58,1.58,0,0,1,.72,1.42v9.76c0,.6-.36.95-1.07.72a25.55,25.55,0,0,0-12.43-3.07Z"/></g></g></svg>