<svg xmlns="http://www.w3.org/2000/svg" viewBox="0 0 87.16 87.16"><g id="Layer_2" data-name="Layer 2"><g id="Layer_1-2" data-name="Layer 1"><path id="Icon_awesome-behance-square" data-name="Icon awesome-behance-square" d="M36.28,50.78c0,3.75-2.72,4.94-6.07,4.94H21.44V45.43h9C34,45.45,36.28,46.94,36.28,50.78Zm-1.5-16c0-3.45-2.66-4.27-5.62-4.27h-7.7v8.72h8.31C32.7,39.23,34.78,38,34.78,34.78Zm25.74,4.51a5.8,5.8,0,0,0-6.16,5.41c0,.12,0,.24,0,.36h12.1a5.55,5.55,0,0,0-5.29-5.79,4.56,4.56,0,0,0-.64,0ZM87.16,9.34V77.82a9.34,9.34,0,0,1-9.34,9.34H9.34A9.34,9.34,0,0,1,0,77.82V9.34A9.34,9.34,0,0,1,9.34,0H77.82A9.34,9.34,0,0,1,87.16,9.34ZM52.86,29.77H68V26.09H52.86ZM44.49,51.23a9.66,9.66,0,0,0-6.81-10,7.27,7.27,0,0,0,5.1-7.2c0-7.43-5.54-9.24-11.94-9.24H13.23V62.1H31.34C38.13,62.06,44.49,58.81,44.49,51.23Zm29.44-2.88c0-8-4.69-14.67-13.15-14.67A13.57,13.57,0,0,0,46.93,47c0,.34,0,.68,0,1,0,8.43,5.31,14.21,13.83,14.21a12,12,0,0,0,12.66-9.11H66.89A6.15,6.15,0,0,1,61,56.61a6.09,6.09,0,0,1-6.66-5.47,6.37,6.37,0,0,1,0-1.38H73.87C73.89,49.3,73.93,48.81,73.93,48.35Z"/></g></g></svg>