<svg xmlns="http://www.w3.org/2000/svg" viewBox="0 0 44.13 33.1"><g id="Layer_2" data-name="Layer 2"><g id="Layer_1-2" data-name="Layer 1"><path id="Icon_simple-adobecreativecloud" data-name="Icon simple-adobecreativecloud" d="M44.12,15.82V17.3c0,.08,0,.15,0,.24-.07.64-.12,1.28-.22,1.92a15.93,15.93,0,0,1-2.16,5.78A16.3,16.3,0,0,1,35,31.42,15.39,15.39,0,0,1,29.83,33l-1.2.13H13.13l-.24,0A13.21,13.21,0,0,1,8.39,32a13.79,13.79,0,0,1-7-6.74A13.24,13.24,0,0,1,.13,20.87L0,19.76V18.33a2,2,0,0,0,0-.24,13.37,13.37,0,0,1,.86-4A13.86,13.86,0,0,1,7.76,6.4,13.47,13.47,0,0,1,13.14,5a14.15,14.15,0,0,1,2.76.13A.35.35,0,0,0,16.16,5,16.48,16.48,0,0,1,20.69,1.7,15.57,15.57,0,0,1,25.89.14L27.17,0H28.5l.25,0c.66.08,1.32.13,2,.24a15.18,15.18,0,0,1,5.65,2.18,16.37,16.37,0,0,1,6.1,6.83A16,16,0,0,1,44,14.57c0,.42.08.84.13,1.26M19.45,6.26l.05.06a17.12,17.12,0,0,1,2.59,1.59.28.28,0,0,0,.25,0,10.07,10.07,0,0,1,13.54,2.38,9.91,9.91,0,0,1,2,8,10.32,10.32,0,0,1-2.45,5.26,9.77,9.77,0,0,1-9,3.36A9.52,9.52,0,0,1,20.72,24q-3-3.1-6.08-6.2a1.64,1.64,0,0,0-1-.55,1.53,1.53,0,0,0-1.59.88,1.47,1.47,0,0,0,.35,1.75c2.25,2.25,4.49,4.52,6.74,6.78a10.45,10.45,0,0,0,1.24,1.07,11.72,11.72,0,0,0,5.52,2.16A13.08,13.08,0,0,0,38,25.1a13.28,13.28,0,0,0,2.9-6.72A13.73,13.73,0,0,0,40.77,14a13,13,0,0,0-3-6.21A12.87,12.87,0,0,0,26.62,3.25a12.41,12.41,0,0,0-4.86,1.46,12.81,12.81,0,0,0-2.3,1.57M18.37,30l-.19-.16c-.92-.9-1.85-1.77-2.76-2.67a.75.75,0,0,0-.59-.25,10.66,10.66,0,0,1-2.76-.18,7.91,7.91,0,0,1-5.75-9.59,7.1,7.1,0,0,1,.27-.86,7.76,7.76,0,0,1,8.54-4.92,7.45,7.45,0,0,1,4.19,2.2c1.41,1.48,2.87,2.93,4.3,4.4a1.3,1.3,0,0,0,1.15.42,1.43,1.43,0,0,0,1.25-1,1.41,1.41,0,0,0-.31-1.55c-1.5-1.55-3-3.14-4.53-4.61A10.11,10.11,0,0,0,10.63,8.72,10.91,10.91,0,0,0,13.89,30h4.23a1.1,1.1,0,0,0,.24,0"/></g></g></svg>