<svg xmlns="http://www.w3.org/2000/svg" viewBox="0 0 36.43 38.71"><g id="Layer_2" data-name="Layer 2"><g id="Layer_1-2" data-name="Layer 1"><path id="Icon_awesome-mailchimp" data-name="Icon awesome-mailchimp" d="M27.41,18.28a3.57,3.57,0,0,1,.8,0,2.77,2.77,0,0,0,0-1.51c-.19-.92-.45-1.48-1-1.39s-.56.75-.37,1.67a3.1,3.1,0,0,0,.52,1.24ZM22.79,19c.39.17.62.28.71.18s-.3-.8-1-1.12a2.72,2.72,0,0,0-2.64.32c-.26.19-.5.45-.46.61.07.32.86-.22,1.95-.3a3.29,3.29,0,0,1,1.48.32Zm-.77.45c-.79.12-1.3.56-1.17.87.08,0,.11.07.45-.07a3.31,3.31,0,0,1,1.62-.17c.25,0,.37.05.42,0S22.85,19.36,22,19.46Zm4.67,1.47c.29-.59-.94-1.2-1.24-.6s.94,1.2,1.24.6ZM28,19.17c-.66,0-.69,1.36,0,1.37s.68-1.36,0-1.37ZM9.18,26a.64.64,0,0,1-.73-.2c-.45-.69,1-1.75.25-3.08a1.84,1.84,0,0,0-2.45-.89,1.93,1.93,0,0,0-.57.41c-.75.83-.75,2-.43,2.08s.35-.56.64-1A1.11,1.11,0,0,1,7.42,23c1,.66.12,1.53.2,2.47.11,1.43,1.58,1.41,1.85.77a.18.18,0,0,0,0-.2c0,.08,0-.11-.29,0ZM35,24.48a14.13,14.13,0,0,0-.59-1.77A2.87,2.87,0,0,0,34.16,19a8.5,8.5,0,0,0-3.54-1.6c-.13-1,.4-5.06-1.86-7.15a8.9,8.9,0,0,0,2.91-5.66c0-3.38-4.15-4.4-9.26-2.28l-1.08.45-2-1.94C13.52-4.26-4.69,16,1.13,20.89L2.41,22A6.19,6.19,0,0,0,2,24.86a6.1,6.1,0,0,0,5.83,5.2c5,11.47,23.09,11.49,27.77.26a11.69,11.69,0,0,0,.79-3.65c0-1.53-.87-2.18-1.43-2.18ZM7.77,28.64a4.7,4.7,0,0,1-4.3-3.92c-.53-5.28,6.41-6.49,7.24-1.06.39,2.55-.4,5-2.94,5ZM6.18,18.8a5,5,0,0,0-3.17,2,8.6,8.6,0,0,1-1.34-1.29C.55,17.38,2.9,13.23,4.54,10.88,8.6,5.1,15,.71,17.91,1.51a12,12,0,0,1,2.06,2A40.79,40.79,0,0,0,14.3,7.39,25.74,25.74,0,0,0,6.18,18.8Zm20.59,8.72a13.72,13.72,0,0,1-6-.61c.54-1.73,2.33.53,8.31-1.19a13.43,13.43,0,0,0,4.4-2.18,8.49,8.49,0,0,1,.61,2.09c.32-.05,1.23,0,1,1.57a8,8,0,0,1-2.24,4.38,9.19,9.19,0,0,1-2.69,2,12.24,12.24,0,0,1-1.75.74c-4.61,1.5-9.33-.15-10.86-3.71a5,5,0,0,1-.31-.84,7.39,7.39,0,0,1,1.62-6.93.61.61,0,0,0,.23-.41.69.69,0,0,0-.17-.39,6.43,6.43,0,0,1-2.27-5.26,3.93,3.93,0,0,1,3.81-3.44l.43,0c.73,0,1.37.14,2,.16a3.94,3.94,0,0,0,3-1A2.34,2.34,0,0,1,27,11.9a1.51,1.51,0,0,1,1.17.19c.86.58,1,2,1,3,0,.58.09,2,.12,2.39.05.92.29,1,.79,1.2l.89.27A5.1,5.1,0,0,1,33.22,20a1.4,1.4,0,0,1,.41.8c.13,1-.76,2.19-3.14,3.29a16.06,16.06,0,0,1-8.66,1.17c-1.73-.22-2.72,2-1.68,3.55,2,2.88,10.55,1.72,13-1.84.06-.09,0-.14-.06-.09A13.48,13.48,0,0,1,22.06,29.1a1.93,1.93,0,0,1-1.37-1.43,9.06,9.06,0,0,0,6.12.06s.17-.24,0-.22ZM13.68,10.87a17.09,17.09,0,0,1,4.81-3.94.06.06,0,0,1,.08,0,.06.06,0,0,1,0,.06,5.21,5.21,0,0,0-.45,1.09.09.09,0,0,0,.05.08h.06a9.35,9.35,0,0,1,4.22-1.49.07.07,0,0,1,.07.07.05.05,0,0,1,0,0,3.86,3.86,0,0,0-.67.67.07.07,0,0,0,0,.09l0,0a8.24,8.24,0,0,1,3.54.92.09.09,0,0,1-.06.15A14.77,14.77,0,0,0,13.77,11a.07.07,0,0,1-.09,0,.09.09,0,0,1,0-.07Z"/></g></g></svg>