<svg xmlns="http://www.w3.org/2000/svg" viewBox="0 0 88.59 88.59"><g id="Layer_2" data-name="Layer 2"><g id="Layer_1-2" data-name="Layer 1"><path id="Icon_awesome-pinterest" data-name="Icon awesome-pinterest" d="M88.59,44.31a44.3,44.3,0,0,1-57.4,42.3A49.84,49.84,0,0,0,36.7,75c.53-2.07,2.75-10.53,2.75-10.53a11.83,11.83,0,0,0,10.14,5.08c13.36,0,23-12.28,23-27.55,0-14.63-11.94-25.58-27.3-25.58C26.16,16.42,16,29.24,16,43.23c0,6.5,3.46,14.59,9,17.16.84.39,1.29.21,1.49-.59.14-.61.89-3.62,1.23-5a1.32,1.32,0,0,0-.31-1.27A17.54,17.54,0,0,1,24.12,43.4a19.17,19.17,0,0,1,19.1-19.23l.9,0c10.88,0,18.5,7.41,18.5,18,0,12-6,20.28-13.92,20.28A6.42,6.42,0,0,1,42,56.41a6.53,6.53,0,0,1,.19-1.92c1.25-5.27,3.66-10.94,3.66-14.75A5.56,5.56,0,0,0,41,33.55a4.78,4.78,0,0,0-.76,0c-4.44,0-8,4.59-8,10.75a16,16,0,0,0,1.32,6.57s-4.38,18.54-5.18,22a42.64,42.64,0,0,0-.16,12.71A44.29,44.29,0,1,1,88.59,44.31Z"/></g></g></svg>