<svg xmlns="http://www.w3.org/2000/svg" viewBox="0 0 38.81 44.12"><g id="Layer_2" data-name="Layer 2"><g id="Layer_1-2" data-name="Layer 1"><path id="Icon_simple-shopify" data-name="Icon simple-shopify" d="M25.53,44.09l13.28-2.88S34,8.84,34,8.62a.4.4,0,0,0-.39-.35C33.41,8.27,30,8,30,8s-2.34-2.35-2.66-2.6a.61.61,0,0,0-.22-.13l-1.68,38.8h.05Zm-6.66-23.3A7.71,7.71,0,0,0,15.6,20c-2.66,0-2.76,1.66-2.76,2.09,0,2.27,5.95,3.16,5.95,8.52a6.28,6.28,0,0,1-5.62,6.88c-.21,0-.43,0-.65,0A8.64,8.64,0,0,1,6,34.84L7.2,31a8.46,8.46,0,0,0,4.19,2,1.75,1.75,0,0,0,1.8-1.68v0c0-3-4.88-3.11-4.88-8-.07-4.11,2.88-8.12,8.87-8.12a7.32,7.32,0,0,1,3.45.67l-1.74,5h0Zm-1-19.26a1.21,1.21,0,0,1,.74.24A9.47,9.47,0,0,0,14,9.11c-1.21.4-2.38.75-3.48,1.07,1-3.29,3.26-8.63,7.34-8.63Zm2.26,5.41v.25l-4.4,1.35a7.64,7.64,0,0,1,3.84-5.47A10.85,10.85,0,0,1,20.14,6.94Zm1-4.1c1.28.13,2.1,1.59,2.63,3.22l-2.13.68V6.27a10.28,10.28,0,0,0-.5-3.44Zm5.5,2.37-.14,0s-.53.14-1.31.39C24.4,3.36,23,1.28,20.57,1.28h-.21A3,3,0,0,0,18.05,0c-5.72,0-8.44,7.13-9.3,10.75-2.19.67-3.79,1.17-4,1.24-1.24.39-1.28.43-1.42,1.6C3.22,14.44,0,39.45,0,39.45l24.92,4.67,1.7-38.91Z"/></g></g></svg>