<svg xmlns="http://www.w3.org/2000/svg" viewBox="0 0 44.13 35.11"><g id="Layer_2" data-name="Layer 2"><g id="Layer_1-2" data-name="Layer 1"><path id="Icon_awesome-squarespace" data-name="Icon awesome-squarespace" d="M16,25.07a2.14,2.14,0,0,0,3,3h0L32.6,14.54a4.26,4.26,0,1,1,6,6L25.34,33.85a4.24,4.24,0,0,0,6,0h0L41.64,23.58a8.52,8.52,0,1,0-12-12Zm21.08-9a2.13,2.13,0,0,0-3,0h0L20.56,29.6a4.26,4.26,0,0,1-6,0h0a2.13,2.13,0,0,0-3,0h0a2.13,2.13,0,0,0,0,3h0a8.51,8.51,0,0,0,12,0h0L37.12,19.06a2.13,2.13,0,0,0,0-3h0ZM14.54,23.57,28.08,10a2.12,2.12,0,1,0-2.83-3.17L25.09,7,11.54,20.56a4.26,4.26,0,0,1-6,0h0a4.25,4.25,0,0,1,0-6h0L18.79,1.25a4.24,4.24,0,0,0-6,0h0L2.49,11.53a8.52,8.52,0,0,0,12,12ZM7,19.05a2.13,2.13,0,0,0,3,0L23.57,5.51a4.25,4.25,0,0,1,6,0h0a2.13,2.13,0,0,0,3-3h0a8.5,8.5,0,0,0-12,0h0L7,16a2.13,2.13,0,0,0,0,3Z"/></g></g></svg>