<svg xmlns="http://www.w3.org/2000/svg" viewBox="0 0 91.43 74.26"><g id="Layer_2" data-name="Layer 2"><g id="Layer_1-2" data-name="Layer 1"><path id="Icon_awesome-twitter" data-name="Icon awesome-twitter" d="M82,18.51c.06.81.06,1.62.06,2.43,0,24.77-18.85,53.32-53.31,53.32A53,53,0,0,1,0,65.84a38,38,0,0,0,4.53.24,37.53,37.53,0,0,0,23.26-8,18.74,18.74,0,0,1-17.52-13,22,22,0,0,0,3.53.29,19.62,19.62,0,0,0,4.94-.63,18.75,18.75,0,0,1-15-18.39v-.23a18.86,18.86,0,0,0,8.48,2.38A18.77,18.77,0,0,1,6.38,3.42,53.27,53.27,0,0,0,45,23a21.35,21.35,0,0,1-.47-4.29A18.75,18.75,0,0,1,77,5.92a36.92,36.92,0,0,0,11.9-4.53,18.74,18.74,0,0,1-8.24,10.33,37.42,37.42,0,0,0,10.79-2.9A40.42,40.42,0,0,1,82,18.51Z"/></g></g></svg>