<svg xmlns="http://www.w3.org/2000/svg" viewBox="0 0 44.12 44.13"><g id="Layer_2" data-name="Layer 2"><g id="Layer_1-2" data-name="Layer 1"><path id="Icon_simple-zapier" data-name="Icon simple-zapier" d="M27.58,22.07a13.25,13.25,0,0,1-.85,4.66,13.21,13.21,0,0,1-4.66.85h0a13.21,13.21,0,0,1-4.66-.85,13.25,13.25,0,0,1-.85-4.66h0a13.21,13.21,0,0,1,.85-4.66,13.21,13.21,0,0,1,4.66-.85h0a13.25,13.25,0,0,1,4.66.85,13.25,13.25,0,0,1,.85,4.66Zm16.25-3.68H31L40,9.28a22.06,22.06,0,0,0-2.38-2.82,22.81,22.81,0,0,0-2.81-2.38l-9.11,9.1V.3A22.53,22.53,0,0,0,22.07,0h0a22.62,22.62,0,0,0-3.67.3V13.18l-9.1-9.1A22.06,22.06,0,0,0,6.46,6.46,23.67,23.67,0,0,0,4.08,9.28l9.1,9.11H.3S0,20.81,0,22.06H0a22.53,22.53,0,0,0,.3,3.67H13.18l-9.1,9.1a22,22,0,0,0,5.2,5.21L18.39,31V43.82a23.58,23.58,0,0,0,3.66.31h0a23.68,23.68,0,0,0,3.66-.31V31l9.1,9.1a18.75,18.75,0,0,0,2.81-2.37h0A20.73,20.73,0,0,0,40,34.86L31,25.76H43.83a23.31,23.31,0,0,0,.29-3.64v-.06a22.5,22.5,0,0,0-.3-3.66"/></g></g></svg>